<svg width="60" height="60" viewBox="0 0 60 60" fill="none" xmlns="http://www.w3.org/2000/svg">
<path d="M30 55C16.1929 55 5 43.8071 5 30C5 16.1929 16.1929 5 30 5C43.8071 5 55 16.1929 55 30C54.9848 43.8008 43.8008 54.9848 30 55ZM27.5 10.155C19.3151 11.1901 12.6057 17.1447 10.6058 25.1487C8.60585 33.1527 11.7259 41.5634 18.462 46.3267C25.1981 51.09 34.1677 51.2283 41.0475 46.675L40.7975 46.8525L41.0325 46.69L41.18 46.5875L41.34 46.475L41.38 46.4475L41.4025 46.43L28.5825 33.605C27.8859 32.8962 27.497 31.9413 27.5 30.9475V10.155ZM34.5725 32.5L45.14 43.0675L45.1575 43.0475L45.17 43.0325L45.145 43.06C47.724 40.0838 49.36 36.4081 49.845 32.5H34.5725ZM32.5 10.155V27.5H49.845C48.7037 18.4353 41.5647 11.2963 32.5 10.155Z" fill="#656C86"/>
</svg>
