<svg width="60" height="60" viewBox="0 0 60 60" fill="none" xmlns="http://www.w3.org/2000/svg">
<path d="M45 55H15C12.2386 55 10 52.7614 10 50V9.99998C10 7.23856 12.2386 4.99998 15 4.99998H32.5C32.5224 4.99708 32.5451 4.99708 32.5675 4.99998H32.5825C32.6061 5.00738 32.6304 5.0124 32.655 5.01498C32.8755 5.02911 33.0931 5.07198 33.3025 5.14248H33.34H33.3775H33.4075C33.4536 5.1748 33.4971 5.21074 33.5375 5.24998C33.8099 5.37104 34.058 5.54044 34.27 5.74998L49.27 20.75C49.4795 20.9619 49.6489 21.2101 49.77 21.4825C49.7925 21.5375 49.81 21.59 49.8275 21.6475L49.8525 21.7175C49.9223 21.926 49.9635 22.1429 49.975 22.3625C49.9772 22.3874 49.9831 22.4118 49.9925 22.435V22.45C49.9966 22.4664 49.9991 22.4831 50 22.5V50C50 51.3261 49.4732 52.5978 48.5355 53.5355C47.5979 54.4732 46.3261 55 45 55ZM36.06 35V47.5H38.41V42.4H42.06V40.305H38.41V37.1025H42.5V35H36.06ZM26.81 35V47.5H29.825C31.0898 47.5622 32.3146 47.0472 33.155 46.1C34.0172 44.9997 34.4492 43.6231 34.37 42.2275V40.2025C34.4279 38.8216 33.9839 37.4664 33.12 36.3875C32.3066 35.4616 31.119 34.9518 29.8875 35H26.81ZM17.5 35V47.5H19.85V43.1025H21.415C22.46 43.1603 23.4808 42.7735 24.225 42.0375C24.9352 41.2435 25.3035 40.2014 25.25 39.1375C25.2964 38.048 24.9284 36.9815 24.22 36.1525C23.5193 35.3755 22.5077 34.9527 21.4625 35H17.5ZM32.5 9.99998V22.5H45L32.5 9.99998ZM29.865 45.405H29.16V37.1025H30.015C30.6221 37.0667 31.2059 37.3416 31.565 37.8325C31.9315 38.5907 32.0886 39.4331 32.02 40.2725V42.445C32.0749 43.2444 31.9015 44.0429 31.52 44.7475C31.1102 45.2258 30.4913 45.4717 29.865 45.405ZM21.4625 41H19.8475V37.1025H21.485C21.8938 37.1069 22.2716 37.3213 22.485 37.67C22.7556 38.1164 22.8862 38.6336 22.86 39.155C22.8913 39.6412 22.7622 40.1242 22.4925 40.53C22.2439 40.8421 21.8612 41.0167 21.4625 41Z" fill="#656C86"/>
</svg>