<svg width="60" height="60" viewBox="0 0 60 60" fill="none" xmlns="http://www.w3.org/2000/svg">
<path d="M45 55H15C12.2386 55 10 52.7614 10 50V10C10 7.23857 12.2386 5 15 5H17.5V10H22.5V15H17.5V20H22.5V25H17.5V42.5H27.5V30H22.5V25H27.5V20H22.5V15H27.5V10H22.5V5H32.5C32.5224 4.99709 32.5451 4.99709 32.5675 5H32.5825C32.6061 5.00739 32.6304 5.01242 32.655 5.015C32.8755 5.02913 33.0931 5.07199 33.3025 5.1425H33.34H33.3775H33.4075C33.4536 5.17481 33.4971 5.21076 33.5375 5.25C33.8099 5.37106 34.058 5.54046 34.27 5.75L49.27 20.75C49.4795 20.962 49.6489 21.2101 49.77 21.4825C49.7925 21.5375 49.81 21.59 49.8275 21.6475L49.8525 21.7175C49.9223 21.926 49.9635 22.143 49.975 22.3625C49.9772 22.3874 49.9831 22.4118 49.9925 22.435V22.45C49.9966 22.4664 49.9991 22.4831 50 22.5V50C50 51.3261 49.4732 52.5978 48.5355 53.5355C47.5979 54.4732 46.3261 55 45 55ZM32.5 10V22.5H45L32.5 10ZM25 40H20V35H25V40Z" fill="#00A7E1"/>
</svg>
